/* XPM */
static char *bbee99336cdf4713c22a8a6437639d04[] = {
/* columns rows colors chars-per-pixel */
"64 64 231 2 ",
"   c #000102",
".  c #060B0B",
"X  c #0A1313",
"o  c #181A1B",
"O  c #0F0F0F",
"+  c #2A0B09",
"@  c #0F1A23",
"#  c #1B2726",
"$  c #0D2C2B",
"%  c #272727",
"&  c #2C3233",
"*  c #373738",
"=  c #2E2F30",
"-  c #770000",
";  c #483733",
":  c #631D1A",
">  c #70453B",
",  c #2E3C45",
"<  c #0F3F45",
"1  c #384445",
"2  c #3B5053",
"3  c #3D5E64",
"4  c #464748",
"5  c #5B5C5D",
"6  c #555658",
"7  c #4E5252",
"8  c #6A5955",
"9  c #566668",
"0  c #636364",
"q  c #6B6A6B",
"w  c #676667",
"e  c #6E7475",
"r  c #7C7C7D",
"t  c #757577",
"y  c #706F6F",
"u  c #595E63",
"i  c #8C0305",
"p  c #B40709",
"a  c #B61E23",
"s  c #B0322E",
"d  c #C80001",
"f  c #DA0000",
"g  c #D50E13",
"h  c #CD161A",
"j  c #E90301",
"k  c #FD0004",
"l  c #F41A07",
"z  c #EA1018",
"x  c #F2210D",
"c  c #F22512",
"v  c #F22D1C",
"b  c #F22917",
"n  c #F2301D",
"m  c #D42A2D",
"M  c #DB3439",
"N  c #C53437",
"B  c #EF3D2D",
"V  c #EF3526",
"C  c #F13523",
"Z  c #F23A29",
"A  c #EE3534",
"S  c #EF3C32",
"D  c #E9383B",
"F  c #EE2A2E",
"G  c #D42420",
"H  c #B45704",
"J  c #B44E36",
"K  c #9B5C34",
"L  c #F55B19",
"P  c #F14D06",
"I  c #D87919",
"U  c #D36C0F",
"Y  c #F3691F",
"T  c #F6641D",
"R  c #E86E0F",
"E  c #CF4C2B",
"W  c #F0452E",
"Q  c #F04C2C",
"!  c #FF402B",
"~  c #F15625",
"^  c #F15B24",
"/  c #F15129",
"(  c #EF4131",
")  c #EE463A",
"_  c #F24B30",
"`  c #CC7D2E",
"'  c #F26222",
"]  c #F46328",
"[  c #F47921",
"{  c #EC6737",
"}  c #C05E00",
"|  c #D73D43",
" . c #F13D42",
".. c #96564A",
"X. c #B2574C",
"o. c #827B7B",
"O. c #8B736F",
"+. c #B16E5C",
"@. c #D8464A",
"#. c #CD584C",
"$. c #EC574B",
"%. c #ED4C50",
"&. c #C96147",
"*. c #C56A54",
"=. c #D3715A",
"-. c #E9675A",
";. c #F0714F",
":. c #CB7965",
">. c #D5726E",
",. c #E76A67",
"<. c #E77675",
"1. c #F46B69",
"2. c #D95D61",
"3. c #FC8500",
"4. c #F98B08",
"5. c #F68D1A",
"6. c #F6931E",
"7. c #F8941E",
"8. c #F89D1D",
"9. c #F89719",
"0. c #E98C1D",
"q. c #F8A41B",
"w. c #DA8324",
"e. c #D78C32",
"r. c #E78920",
"t. c #F69821",
"y. c #F39E3A",
"u. c #F3A03C",
"i. c #AA8178",
"p. c #81807F",
"a. c #F0885C",
"s. c #EAA452",
"d. c #CD8A7B",
"f. c #D68B78",
"g. c #D7927D",
"h. c #D38A6B",
"j. c #E88874",
"k. c #E9B571",
"l. c #777E82",
"z. c #7A8485",
"x. c #6E898B",
"c. c #598280",
"v. c #838384",
"b. c #8B8C8D",
"n. c #878889",
"m. c #968A89",
"M. c #8D9394",
"N. c #939393",
"B. c #98999A",
"V. c #8E8F91",
"C. c #A39A99",
"Z. c #AD8C85",
"A. c #9D9FA1",
"S. c #9DA8B1",
"D. c #A3A4A4",
"F. c #AAABAC",
"G. c #A8A6A7",
"H. c #B2A8A7",
"J. c #ADB3B5",
"K. c #B4B3B4",
"L. c #BCBCBD",
"P. c #B6B8B9",
"I. c #ACAEB1",
"U. c #B7A396",
"Y. c #D5998A",
"T. c #D38E8C",
"R. c #E78885",
"E. c #E89786",
"W. c #E79D9A",
"Q. c #F49090",
"!. c #DAA38A",
"~. c #DAA498",
"^. c #D6B38E",
"/. c #E4AB98",
"(. c #E9AE92",
"). c #F49DA1",
"_. c #D9ACA6",
"`. c #CFB8B3",
"'. c #EAA7A7",
"]. c #F9A8A9",
"[. c #E7B7A9",
"{. c #E5B9B6",
"}. c #F7B5B7",
"|. c #F5AEB0",
" X c #E5C39B",
".X c #E9C6BA",
"XX c #EEC9B3",
"oX c #AEB9CD",
"OX c #C1BFC2",
"+X c #F3BFC1",
"@X c #BEC4C5",
"#X c #ABC2C4",
"$X c #C2C2C3",
"%X c #CCCCCD",
"&X c #C8C8C9",
"*X c #D8C8C6",
"=X c #CCD2D4",
"-X c #D3D2D3",
";X c #DDD5D4",
":X c #DCDBDC",
">X c #D9D8D9",
",X c #D0CFD0",
"<X c #EACAC2",
"1X c #F5C5C4",
"2X c #E8D3CC",
"3X c #F3D6C8",
"4X c #E4DDDC",
"5X c #E7D8D6",
"6X c #F6DAD7",
"7X c #EFE3DB",
"8X c #DDDFE0",
"9X c #DCE2E3",
"0X c #DBE9ED",
"qX c #D6E9FB",
"wX c #D6FFFF",
"eX c #D8FCFE",
"rX c #D8F4F8",
"tX c #C8F5F8",
"yX c #E3E3E3",
"uX c #EBE5E4",
"iX c #ECEBEC",
"pX c #EBE8E8",
"aX c #F4EBE9",
"sX c #EAF6F8",
"dX c #F4F3F3",
"fX c #F9F6F6",
"gX c #F5FCFD",
"hX c #FEFEFE",
"jX c #F7F8F6",
"kX c #FAF0F2",
"lX c None",
/* pixels */
"lXlXlXlXlXlXlXlXlXlXlXlXlXlXlXlXlXlXlXlXlXlXlXlXlXlXlXlXlXW lXlXlXlXlXlXlXlXlXlXlXlXlXlXlXlXlXlXlXlXlXlXlXlXlXlXlXlXlXlXlXlXlXlX",
"lXlXlXlXlXlXlXlXlXlXlXlXlXlXlXlXlXlXlXlXlXlXlXlXlXlXlXlXlXQ ' lXlXlXlXlXlXlXlXlXlXlXlXlXlXlXlXlXlXlXlXlXlXlXlXlXlXlXlXlXlXlXlXlX",
"lXlXlXlXlXlXlXlXlXlXlXlXlXlXlXlXlX) B x C lXlXlXlXlXlXlXlXQ ' ' lXlXlXlXlXlXlXlXlXlXlXlXlXlXlXlXlXlXlXlXlXlXlXlXlXlXlXlXlXlXlXlX",
"lXlXlXlXlXlXlXlXlXlXlXlXlXlXlXlXlXC $.R.( l C lXlXlXlXlXS ( ' ' ' lXlXlXlXlXlXlXlXlXlXlXlXlXlXlXlXlXlXlXlXlXlXlXlXlXlXlXlXlXlXlX",
"lXlXlXlXlXlXlXlXlXlXlXlXlXlXlXlXlXlX) sXpX'.) b ) lXlXlX( S / Y ' ' lXlXlXlXlXlXlXlXlXlXlXlXlXlXlXlXlXlXlXlXlXlXlXlXlXlXlXlXlXlX",
"lXlXlXlXlXlXlXlXlXlXlXlXlXlXlXlXlXlXx '.eXXX(.$.v ( lXlXS A / Y ^ ' ' lXlXlXlXlXlXlXlXlXlXlXlXlXlXlXlXlXlXlXlXlXlXlXlXlXlXlXlXlX",
"lXlXlXlXlXlXlXlXlXlXlXlXlXlXlXlXlXlXc -.sXE.Y ;.V S A lXlXlX( ' ' ' ' lXlXlXlXlXlXlXlXlXlXlXlXlXlXlXlXlXlXlXlXlXlXlXlXlXlXlXlXlX",
"lXlXlXlXlXlXlXlXlXlXlXlXlXlXlXlXlXlXB b 1X XL P ] / ^ ' Y lXlXlXlXlX' ' lXlXlXlXlXlXlXlXlXlXlXlXlXlXlXlXlXlXlXlXlXlXlXlXlXlXlXlX",
"lXlXlXlXlXlXlXlXlXlXlXlXlXlXlXlXlXlXlXc ,.a.P ^ ' Y ' Y ' Y Y ' ' lXlXlXlXlXlXlXlXlXlXlXlXlXlXlXlXlXlXlXlXlXlXlXlXlXlXlXlXlXlXlX",
"lXlXlXlXlXlXlXlXlXlXlXlXlXlXlXlXlXlXlX( A _ Y ] ' Y ' ^ ^ ^ ^ ' ' Y Y ' lXlXlXlXlXlXlXlXlXlXlXlXlXlXlXlXlXlXlXlXlXlXlXlXlXlXlXlX",
"lXlXlXlXlXlXlXlXlXlXlXlXlXlXlXlXlXlXlXlX( L ' Y Y / W S S S S ( Q / ^ ' Y ] lXlXlXlXlXlXlXlXlXlXlXlXlXlXlXlXlXlXlXlXlXlXlXlXlXlX",
"lXlXlXlXlXlXlXlXlXlXlXlXlXlXlXlXlXlXlXlX' Y Y ~ ( A S ( S ( ( S A A A Q ~ ' Y lXlXlXlXlXlXlXlXlXlXlXlXlXlXlXlXlXlXlXlXlXlXlXlXlX",
"lXlXlXlXlXlXlXlXlXlXlXlXlXlXlXlXlXlX' ' Y Y Q A S ( ( ( ( ( ( ( ( ( S S S ( ~ Y ' lXlXlXlXlXlXlXlXlXlXlXlXlXlXlXlXlXlXlXlXlXlXlX",
"lXlXlXlXlXlXlXlXlXlXlXlXlXlXlXlXlX^ ' Y ^ ( S B ( ( ( ( ( B B ( ( ( ( ( ( S S Q ' Y lXlXlXlXlXlXlXlXlXlXlXlXlXlXlXlXlXlXlXlXlXlX",
"lXlXlXlXlXlXlXlXlXlXlXlXlXlXlXlX' ' ' Q S S ( ( ( ( ( ( ( ( ( ( ( ( ( C n Z B S W ' Y lXlXlXlXlXlXlXlXlXlXlXlXlXlXlXlXlXlXlXlXlX",
"lXlXlXlXlXlXlXlXlXlXlXlXlXlXlX' ' Y ^ W S B ( ( ( ( Z n Z ( ( ( ( B B -.-.B c x A W ' ' lXlXlXlXlXlXlXlXlXlXlXlXlXlXlXlXlXlXlXlX",
"lXlXlXlXlXlXlXlXlXlXlXlXlXlX' ' ' ^ ' ' ( S ( ( B B $.$.V c l b ( ( C ,.`.tX*X,.b A _ Y lXlXlXlXlXlXlXlXlXlXlXlXlXlXlXlXlXlXlXlX",
"lXlXlXlXlXlXlXlXlXlXlXlXlX' ' ' ' ' Y Q S ( ( W n l B {.:X_.R.$.x x ( b C j.tXtXR.x S ^ lXlXlXlXlXlXlXlXlXlXlXlXlXlXlXlXlXlXlXlX",
"lXlXlXlXlXlXlXlXlXlXlXlXlXlX' ' ' Y ^ A S ) Z l S R.[.;XeXwXwXrX{.-.l b B l n ~.tX$.v W Y lXlXlXlXlXlXlXlXlXlXlXlXlXlXlXlXlXlXlX",
"lXlXlXlXlXlXlXlXlXlXlXlXlXlX' ^ ' ' S S ) v x j.9XwXeX9X:X:X;X9XwXwX{.$.l C C l <.,.n S / lXlXlXlXlXlXlXlXlXlXlXlXlXlXlXlXlXlXlX",
"lXlXlXlXlXlXlXlXlXlXlXlXlX' ' ' Y W A W b C *XwX0X:X:X8XlXlXlX:X;X8XwXeXW.Z l Z n C ( ( S Q lXlXlXlXlXlXlXlXlXlXlXlXlXlXlXlXlXlX",
"lXlXlXlXlXlXlXlXlXlXlXlX' ' ] Y / A W V B {.9X;X8X:X:XlXlXlXlXlXlXlX;X9XwX9X<.c l W ( ( ( S S ( lXlXlXlXlXlXlXlXlXlXlXlXlXlXlXlX",
"lXlXlXlXlXlXlXlXlXlXlXlX' ^ Y ^ A S ( Z $._ ,.rX9XlXlXlXlXlXlXlXlXlXlXlX9XrXwX*X-.c l V W ( ( ( ( ( lXlXlXlXlXlXlXlXlXlXlXlXlXlX",
"lXlXlXlXlXlXlXlXlXlXlX' ' Y ' S S ( ( ( C x ;XrXlXlXlXlXlXlXlXlXlXlXlXlXlXlXwXwXwX<X,.( x l x c b x x ( S lXlXlXlXlXlXlXlXlXlXlX",
"lXlXlXlXlXlXlXlXlXlXlX' ' Y W S ( ( ( ( x -.0XlXlXlXlXlXlXlXlXlXlXlXlXlXlXlXlXlXlXwXwX0X[.j.,.-.-.W.W.B Z lXY lXlXlXlXlXlXlXlXlX",
"lXlXlXlXlXlXlXlXlXlX' ' Y Q A ( ( ( ( ) l R.wXlXlXlXlXlXlXlXlXlXlXlXlXS Z b x lXlXlXlXlXlXwXwXwXlX;XE.A lXlX' ^ lXlXlXlXlXlXlXlX",
"lXlXlXlXlXlXlXlXlXlX' Y / A ( S ( ( ( b $.lXlXlXlXlXlXlXlXlXlXlXlXlX( ( lXlX( B C c c lXlXlXlXlX$.c l lXlXlX' ' ] lXlXlXlXlXlXlX",
"lXlXlXlXlXlXlXlXlX^ Y ^ S S B S A F A lXlXlXlXlXlXt.lXlXlXlXlXlXlX( ( lXlXlXlXlXlXlX( Z v b b c v lXlXlXlX] ' ' ' lXlXlXlXlXlXlX",
"lXlXlXlXlXlXlXlXlXY ] S S A lXlXlXlXlXlXlXlXlXlXlX7.7.7.lXlXlXlXlXF lXlXlXlXlXlXlXlXlXlXlXlXlXlXlXlXlXlX' ' ' ' ' ' lXlXlXlXlXlX",
"lXlXlXlXlXlXlXlXlX' ( F lXlXlXlXlXlXq.8.9.5.7.7.t.7.7.7.7.7.7.lXlXlXlXlXlXlXlXlXlXlXlXlXlXlXlXlXlXlXlX' ' ' ' ^ ' ' lXlXlXlXlXlX",
"lXlXlXlXlXlXlXlXY S lXlXlXlXq.8.9.4.3.3.3.3.3.3.3.3.3.4.7.5.3.9.t.q.lXlXlXlXlXlXlXlXlXlXlXlXlXlXlX^ ^ ~ ^ ' ' ' ^ ' ' lXlXlXlXlX",
"lXlXlXlXlXlXlXlXlXlXlXlXq.7.3.3.5.u.k.k. X X X X Xk.s.u.3.u.(.4.3.4.t.7.7.lXlXlXlXlXlXlXlX~ ~ ^ ^ ^ ' [ [ ^ ^ ' ' ' ' lXlXlXlXlX",
"lXlXlXlXlXlXlXlXlXlXlX7.3.3.s. X;X0XqXqXqXqXqXqXqXqXqX0XXX.XrX;X(.8.4.4.8.7.7.7.lXlXlXlXlXlXlXlX5.5.7.q.[ ~ ' ^ ' ' ' lXlXlXlXlX",
"lXlXlXlXlXlXlXlXlXlX7.9.k.yXrXgXgXhXhXfXhXjXdXiXyX9X>X>XqXqX>X0XwXrX Xy.4.9.t.7.7.7.7.9.8.8.8.8.t.t.8.7.T ^ ' ' ' ' ' lXlXlXlXlX",
"lXlXlXlXlXlXlXlXlXq.q.q.s.R.kXhXhXhXhXhXhXjXhXfXjXdXpX:X%X%X=X,Xs.k.*X*Xs.4.6.6.t.7.t.8.7.7.7.6.6.7.8.[ ~ ' ' ' ' ' ' ' lXlXlXlX",
"lXlXlXlXlXlXlXlX8.[ ] Z j Q.hXhXjXjXdXdXaXiXpX7XyX4X4X4X;X&XOXL.U.w.R R e.r.r.r.0.0.0.0.6.t.6.7.7.8.6.^ ' ^ ' ' ' ^ ' ' lXlXlXlX",
"lXlXlXlXlXlXlX] _ A F j ].hXjXjXdXaXpXuX4X4X;X;X-X*X*X*X*X&X`.H.oXoXU.e.U I w.w.w.w.0.r.0.0.0.6.t.9.' ~ ' ' ' ' ' ' ' ' lXlXlXlX",
"lXlXlXlXlXlXlXlXlXV l Q.hXjXfXaXpXyX4X;X;X=XK.C.C.C.m.b.C.C.C.C.N.B.S.S.O.H H H } I w.w.r.r.r.6.t.' P P P P T T ^ ' ' ^ lXlXlXlX",
"lXlXlXlXlXlXlXlXZ Z j.hXgXkXhXhXaX;X;X&XJ.m.U.=X,X,X%XH.O.t r n.b.O.i.C.oX`.^.^.h.e.I r.` w.w.w.L ' ;.a.a.{ T T T ' ' ' lXlXlXlX",
"lXlXlXlXlXlXlX) : O.hXhXhXjXt l.4XpXJ.m.X.s W.hXhXhXhX.XJ J 8 5 ....; 4 sXhXhXhXjX6 ; K r.U I E s !.jXgXjXgX=.E L L ' lXlXlXlXlX",
"lXlXlXlXlXlX% w < $ iXhXhX>X  * 5 e i.#.f.J :.gXsXdXgXY.J g.j...+ * 1   L.hXhXhX-X@ , 3 8 E E :.+.*.gXgXgX;XJ T.h.^ P lXlXlXlXlX",
"lXlXlXlXlXt   0 q o t N.B.r & r 2 > E =.{.&.&.d.~.Y.Y.=.&.{./.{ ..x.t   1 B.A.D.6 O b.A.@ 7 &.h.T.X.Y.~._.Y.&./.T.*.a.lXlXlXlXlX",
"lXlXlXlXjXhXt   & b.K.7 0 $Xb.o B.hXd.J J :._.7Xh.*.6X<Xf.=.&.f.hX@Xo 7 $XV.% n.%Xr u * 4 J.fXJ &.~..X*.g.<X!.=.&..XhXlXlXlXlXlX",
"lXlXlXlXhXhXD.n.A.0 P.%X=X@X6 v.hXhX5X*.~.d.Y..X_._.<X/.g.[.j.<XhXhXA.4 P.F.r F.L.l.A.u b.hXhXuXd.d.<X2X5X.Xg.<X[.6XhXdXlXlXlXlX",
"lXlXlXhXhXiX6 D.P.:XhXhXhXiXr %XhXhX_._.2Xd.2X4XgXhXuX7X/.3X3X[.hXhX9Xr I.iXhXiX%XA.G.8XN.dXhXhX*XuXhXhXhXhX7X3XXX/.hXhXhXlXlXlX",
"lXlXlX$XhXD.7 0 :XhXhXP.L.$XG.hXhX5X*.d.!.7XgXhXpXuXhXgXkX1X(.g.3XhXhX&XyXjX@XpXhXhX&XI.l.I.hXhXhXdX5XjXdX7XhX6X(.[.aXhXuXlXlXlX",
"lXlXlX  X e $XP.hXhX8XA.I.M.Z..XsX~.d.h.2XhXjXhX/.g.gXhXhXaX[.XX3XhXfX`.L.S.e B.dXhXjXP.P.G.iXgX&X!.=.XX3X!.{.hX3X6XR.-.h.lXlXlX",
"lXlXJ.4 6 6 A.>XhX9XI.&XN., J E J f.jX[.iXgXhX<Xf.(.3XhXhXhX}.fX'.#.;.f.P.J.P.J.pXhXhX%XyX,X0 0 w g.XX(.,.h s hX'.@.h M N 5XlXlX",
"lXlXF.6 e 5 M.yXhXN.5 q 1 X J E.>.j./..XgXgX2X(.XX).) >.jXgX{.2.| g %.a v.0X>XF.b.-XhX>Xv.v.= 5 2 U.-.z f p _.hX).@.m %.N `.lXlX",
"lXlX%X. o v.:X-XhXD.o 5 6 o K 1X!.:.h.2XgXhX/.=.$.z d p 5XhX6Xm | %.'.p 8 M.z.0 & = iXhX0 5 6 C.1 #XQ.d d _.hXgX)..Xm f p =XlXlX",
"lXlX-XF.dXJ.B.n.>XhXhXq 7 z.+.#.E !.7X<XhXhXhXN d g p <XhXhX'.+X>.d f h X # t 5 O o dX9XL.L.# o @ =XhX@.>.gXhX+X .| '.fXZ.&XlXlX",
"lXlX:X8XhXdXy b.K.iXhX:XJ.l.X.a.W.(.6XXXiXgXgXkXh p _.hXhXfX<.+X>.@. .a 2 D.o.I.t L.hXK.$XN.w n.1 &XhXgXhXhX6X].2.2.hXhXP.,XlXlX",
"lXlXlXF.dXhXC.V.F.q L.hX=X* o.hXhX<XE.>.>.gXgXhX~.X.hXhXhX).z h R.hXhXH.I.yX= P.hXhX:Xz.5 q hXhX`.#.'.aX6X). .).R.1XhX,Xv.fXlXlX",
"lXlXlXG.I.hXv.  * V.OXt t w 4 gXhXhXg.<.'.W.sXgXgXgXhXhX|.].W.m 6XfXhXl.C.hXhXjXhXyX$X,X5 L.hXhXi.#.|.F %.|.2.g j }.hXt G.lXlXlX",
"lXlXlXdXB.5   y e * n.n.v.w   B.hXhX|.>.6X| ,.'.aXfX|.R.F +XW.Q.hXhXP.o r =XhX:XJ.n.L.K.b.hXhXrXs z <.,.<.2.z 1. .k 8 x.hXlXlXlX",
"lXlXlXlX;X5 % 7 5 * yXhXhXK.# o uXhX*Xd g @.Q.6X%.D +X}.%.G f ).hXfX% % yXP.5 I.iXB.w * V.hXhX..d F kXfXhX}.k %.N : 7 8XlXlXlXlX",
"lXlXlXlXlX;Xv.=   q hXhXhXaX4   2 1Xz G | M 2.Q.M G R.<.M  .F k ].x.. * p.z.6 r b.0 n.D.0 B.M.; i 2.hXhXhXfXa - = c.>XlXlXlXlXlX",
"lXlXlXlXlXlXaXD.5 4 0 y w t 0 7 # + d  .|.h f <.+X}.).z j ].1.j + & 5 o t 4X;XyXV.4 J.&X6 & r &Xx.7 0 y q 6 1 3 A.uXlXlXlXlXlXlX",
"lXlXlXlXlXlXlXhXuXK.o.q w C.;XK.t $   i z k 1.hXhXhXhXQ.k z a o $ o o 4 yXhXhXhXkXt 6 * * t :XhXdXL.v.y q v.P.yXhXlXlXlXlXlXlXlX",
"lXlXlXlXlXlXlXlXlXlXlXfXfXlXlXfXD.w & . + - T.hXhXhXhX}.i + $ 9 y r 4 * $XyXyXyX%X4 % 4 b.;XhXlXlXlXlXhXfXlXlXlXlXlXlXlXlXlXlXlX",
"lXlXlXlXlXlXlXlXlXlXlXlXlXlXlXlXfXL.o.7 $ . X = 4 4 = o X $ w D.4X;Xm.5 * 4 4 ; * 7 o.K.iXlXlXlXlXlXlXlXlXlXlXlXlXlXlXlXlXlXlXlX",
"lXlXlXlXlXlXlXlXlXlXlXlXlXlXlXlXlXhX4XG.o.w * o O O o 4 y V.OXdXlXlXiX,XI.N.n.N.G.&XuXhXlXlXlXlXlXlXlXlXlXlXlXlXlXlXlXlXlXlXlXlX",
"lXlXlXlXlXlXlXlXlXlXlXlXlXlXlXlXlXlXlXhXyX$XF.C.N.N.C.P.-XdXhXlXlXlXlXlXlXhXfXfXhXlXlXlXlXlXlXlXlXlXlXlXlXlXlXlXlXlXlXlXlXlXlXlX",
"lXlXlXlXlXlXlXlXlXlXlXlXlXlXlXlXlXlXlXlXlXlXhXfXkXfXhXhXlXlXlXlXlXlXlXlXlXlXlXlXlXlXlXlXlXlXlXlXlXlXlXlXlXlXlXlXlXlXlXlXlXlXlXlX"
};
