/* XPM */
static char *_1c13ff3a10f46c4b7f4fc355585bfd9[] = {
/* columns rows colors chars-per-pixel */
"32 32 188 2 ",
"   c #0F0000",
".  c #131213",
"X  c #141D20",
"o  c #142B32",
"O  c #2B2C2E",
"+  c #272D2C",
"@  c #283333",
"#  c #3C3D3D",
"$  c #323536",
"%  c #7C0000",
"&  c #4E2426",
"*  c #6E3537",
"=  c #6C493B",
"-  c #304D50",
";  c #2C4342",
":  c #464444",
">  c #535758",
",  c #685753",
"<  c #5E5F62",
"1  c #5C6162",
"2  c #686C6E",
"3  c #686B73",
"4  c #697676",
"5  c #747374",
"6  c #7A7B7B",
"7  c #787678",
"8  c #786564",
"9  c #9E0001",
"0  c #A90003",
"q  c #C50001",
"w  c #D00000",
"e  c #C41110",
"r  c #C70C11",
"t  c #F80A00",
"y  c #F31D09",
"u  c #F12C1B",
"i  c #F22616",
"p  c #F6321A",
"a  c #FC1D24",
"s  c #D62529",
"d  c #D73736",
"f  c #CB3536",
"g  c #F32B27",
"h  c #EF332D",
"j  c #F13223",
"k  c #F13828",
"l  c #EE3533",
"z  c #EE3D32",
"x  c #EE2B32",
"c  c #824B12",
"v  c #BE6000",
"b  c #AD4A34",
"n  c #B9712C",
"m  c #F24400",
"M  c #F55305",
"N  c #F55615",
"B  c #F44117",
"V  c #DD7312",
"C  c #F36A1E",
"Z  c #F3671F",
"A  c #C35036",
"S  c #EF412F",
"D  c #F0482A",
"F  c #F25C24",
"G  c #F15229",
"H  c #F15625",
"J  c #EF4232",
"K  c #EE4A3D",
"L  c #F04B36",
"P  c #D96139",
"I  c #F26222",
"U  c #F36A22",
"Y  c #E66B39",
"T  c #F17B3D",
"R  c #944245",
"E  c #9B6155",
"W  c #847B7B",
"Q  c #AA6F62",
"!  c #DF5D53",
"~  c #C65944",
"^  c #EF4D41",
"/  c #EE5A4C",
"(  c #E74C50",
")  c #E85658",
"_  c #F45C57",
"`  c #C46B56",
"'  c #DC7258",
"]  c #CE6F55",
"[  c #EC6255",
"{  c #E6655A",
"}  c #E65F63",
"|  c #CE726D",
" . c #F97478",
".. c #EF6A69",
"X. c #FB8A05",
"o. c #FC9600",
"O. c #FA910E",
"+. c #EE8B17",
"@. c #F7891C",
"#. c #F99D1D",
"$. c #F6951D",
"%. c #FCB016",
"&. c #F78F20",
"*. c #F1962C",
"=. c #F4A222",
"-. c #F4AA3B",
";. c #BC8375",
":. c #EAA757",
">. c #EFAD4E",
",. c #CD8E7A",
"<. c #EE8273",
"1. c #E0A667",
"2. c #718598",
"3. c #8C8D8D",
"4. c #8F8F91",
"5. c #879798",
"6. c #939495",
"7. c #9B9A9B",
"8. c #989697",
"9. c #BDA48C",
"0. c #9D9EA0",
"q. c #9EABAF",
"w. c #96B0B6",
"e. c #ACACAD",
"r. c #A5A6A8",
"t. c #B9ABA8",
"y. c #AFAFB0",
"u. c #AAB7B8",
"i. c #B3B3B4",
"p. c #BCB9B9",
"a. c #D8998E",
"s. c #DF9F90",
"d. c #D78D8F",
"f. c #E88684",
"g. c #E89A97",
"h. c #EC8F8E",
"j. c #DBA698",
"k. c #E5A799",
"l. c #F3A58F",
"z. c #C8BDBC",
"x. c #DCB2AA",
"c. c #E3A8A3",
"v. c #F8A6A8",
"b. c #E8B6AB",
"n. c #E5B7B7",
"m. c #F3BABB",
"M. c #F3B2A0",
"N. c #EAC79A",
"B. c #D1C1B2",
"V. c #EAC5B7",
"C. c #F3C9B3",
"Z. c #B9BDC0",
"A. c #BFC3C4",
"S. c #ADC7CB",
"D. c #C3C4C5",
"F. c #CBC9CA",
"G. c #DFCECD",
"H. c #D4C6C6",
"J. c #CCD4D9",
"K. c #C3D1D1",
"L. c #D4D4D5",
"P. c #DADBDC",
"I. c #D9D9D6",
"U. c #EAC7C3",
"Y. c #FFC1C3",
"T. c #F2D6CA",
"R. c #E3DDDE",
"E. c #F8D8D9",
"W. c #FDE1DE",
"Q. c #D8DFE2",
"!. c #FBDBE1",
"~. c #DAE3E7",
"^. c #DBE9F1",
"/. c #D6FEFF",
"(. c #D9FCFE",
"). c #CCE2E2",
"_. c #E5E5E9",
"`. c #EBEBEC",
"'. c #EAE3E3",
"]. c #F7E8E7",
"[. c #F4F3EF",
"{. c #E8EFF8",
"}. c #EDFCFF",
"|. c #EAF7FF",
" X c #F4FCFC",
".X c #FEFFFF",
"XX c #FAF8F5",
"oX c None",
/* pixels */
"oXoXoXoXoXoXoXoXoXoXoXoXoXoXoXI oXoXoXoXoXoXoXoXoXoXoXoXoXoXoXoX",
"oXoXoXoXoXoXoXoXoX/ ^ oXoXoXS I oXoXoXoXoXoXoXoXoXoXoXoXoXoXoXoX",
"oXoXoXoXoXoXoXoXoXf.`./ h oXl G U oXoXoXoXoXoXoXoXoXoXoXoXoXoXoX",
"oXoXoXoXoXoXoXoXoXK V.T D G H F U I oXoXoXoXoXoXoXoXoXoXoXoXoXoX",
"oXoXoXoXoXoXoXoXoXoXK Z C U I I F Z oXoXoXoXoXoXoXoXoXoXoXoXoXoX",
"oXoXoXoXoXoXoXoXoXoXN U G S z S S G F oXoXoXoXoXoXoXoXoXoXoXoXoX",
"oXoXoXoXoXoXoXoXoXC I S l z S S z l j G U oXoXoXoXoXoXoXoXoXoXoX",
"oXoXoXoXoXoXoXoXI F z z S j y i k K { h p U oXoXoXoXoXoXoXoXoXoX",
"oXoXoXoXoXoXoXI I F J j y [ h.[ i i f.H.} B oXoXoXoXoXoXoXoXoXoX",
"oXoXoXoXoXoXoXI U D j J s._./.^.n.{ t { d.j I oXoXoXoXoXoXoXoXoX",
"oXoXoXoXoXoXI U G g K G.(.^.oXoX/./.V.k t j S S oXoXoXoXoXoXoXoX",
"oXoXoXoXoXoXI F l k J G.oXoXoXoXoXoXoX(.b.[ j u k J oXoXoXoXoXoX",
"oXoXoXoXoXI I z z u ) /.oXoXoXoXoXoXoXoXoXG.n.c.c.) oXoXoXoXoXoX",
"oXoXoXoXoXC z x l i oXoXoXoXoXoXoXh oXoXoXoXoXoXoXoXoXI oXoXoXoX",
"oXoXoXoXI l oXoXoXoXoXoXX.O.O.oXoXoXoXoXoXoXoXoXoXoXI I I oXoXoX",
"oXoXoXoXoXoXoXo.=.>.:.:.:.*.*.-.o.oXoXoXoXoXoXoXZ U U F I I oXoX",
"oXoXoXoXoX%.-.C.`.|.|.|.{.~.I.~.N.>.$.$.#.oXoX@.&.#.U F I F oXoX",
"oXoXoXoX=.M <..X.X.X.XXX[._.~.J.B.1.+.@.&.$.#.#.=.@.F I I I oXoX",
"oXoXoXoXp g !..XXX`.Q.z.t.t.i.r.e.,.n v V *.+.+.@.m m N I I oXoX",
"oXoXoXoXf W..Xy.F.p.Q z.}.L.E 8 , 3 ^.XX9.c V V P C.C.Y N M oXoX",
"oXoXoX. - S.y.@ < ` A s.].n.' ] = X q.}.2.o = ~ ` R.'.;.' Y oXoX",
"oXoX X6 1 7.r.4 L.k.] a.j.j.,.M..X2 7 4.4.1 w.].d.x.b.j.b. XoXoX",
"oXoXL.6.P..XI.A..Xa.x.{. XXXT.V..X).F.`.`.i.D..X].`. X].T..XoXoX",
"oX8.+ e..XD.4 ;.k.s.'..XV.[..XV.M.b.D.Z..X`.e.q.t.l.! n.m.d k.oX",
"oX4.$ L._.> O b ' U..Xc.S s }.m.s r 7 5.< `.8.X 4 [ w [.g.w | oX",
"oXI.Q.y.P.P.4 | l.V. XE.q |  Xg.( d : 1 5 P.8.> 5.W.'.].f.E.z.oX",
"oXoX`.6 5 D.< 8..Xg.n. X_. XE.} E.K.7._..XD.4..Xd.h.v.(  .).K.oX",
"oXoX8.. # P.y.@  Xh.d g.m.v.(  ..X4 3.D.i.7 L.R.e v.Y.a 0 W oXoX",
"oXoXoX6.: i.D.$ # s a ..v. .g a * X e.K.0.2 2 W R u.u.* 6 oXoXoX",
"oXoXoXoXoX7.oXXX>   9 d..XU.0 & + @ D..X6.O 5 oXoXr.0.oXoXoXoXoX",
"oXoXoXoXoXoXoXoX.X5.@ @ # # ; q..Xp.6 5 W p.oXoXoXoXoXoXoXoXoXoX",
"oXoXoXoXoXoXoXoXoXoX Xz.r.Z. XoXoXoXoXoXoXoXoXoXoXoXoXoXoXoXoXoX"
};
