/* XPM */
static char *_76e44b65e9f4b9f916fe791d30eed4d[] = {
/* columns rows colors chars-per-pixel */
"16 16 146 2 ",
"   c #5D2427",
".  c #7F4A3F",
"X  c #454D4D",
"o  c #736769",
"O  c #6B6E70",
"+  c #727374",
"@  c #7C7071",
"#  c #A91A1D",
"$  c #AA2C2D",
"%  c #F21F0F",
"&  c #F21D10",
"*  c #F21E15",
"=  c #F12119",
"-  c #F1241B",
";  c #F13F19",
":  c #F13E1E",
">  c #EF362C",
",  c #EF352F",
"<  c #BE7E32",
"1  c #ED4500",
"2  c #F45009",
"3  c #F2541D",
"4  c #CF6700",
"5  c #FB6700",
"6  c #F26816",
"7  c #F3691F",
"8  c #F36A1E",
"9  c #FD7318",
"0  c #F14D29",
"q  c #F04D2A",
"w  c #F25622",
"e  c #F15227",
"r  c #F25725",
"t  c #F25921",
"y  c #F25F22",
"u  c #F25E23",
"i  c #F25F25",
"p  c #ED4530",
"a  c #F26421",
"s  c #F46124",
"d  c #F36A20",
"f  c #F26A21",
"g  c #F2652A",
"h  c #ED3F41",
"j  c #966E67",
"k  c #A36968",
"l  c #B96A6C",
"z  c #A8736A",
"x  c #DE4142",
"c  c #ED4F44",
"v  c #EB5746",
"b  c #EB5852",
"n  c #E55F5F",
"m  c #ED5D5E",
"M  c #E26553",
"N  c #EE7A53",
"B  c #E8746B",
"V  c #E9786E",
"C  c #EB6D72",
"Z  c #E6797E",
"A  c #F98405",
"S  c #F18900",
"D  c #FB9B0A",
"F  c #FD9016",
"G  c #FA9516",
"H  c #FFA31F",
"J  c #F09238",
"K  c #EF8849",
"L  c #F2A947",
"P  c #D48370",
"I  c #DA8870",
"U  c #ED917E",
"Y  c #EEC77A",
"T  c #667987",
"R  c #837E85",
"E  c #967E85",
"W  c #79868B",
"Q  c #7D9798",
"!  c #818181",
"~  c #818C8C",
"^  c #899494",
"/  c #87949D",
"(  c #939E9F",
")  c #BB8F91",
"_  c #A29390",
"`  c #A09092",
"'  c #A29193",
"]  c #B29C9D",
"[  c #8EA2A1",
"{  c #9AA3A3",
"}  c #99A5A7",
"|  c #A3A5A6",
" . c #ACABAA",
".. c #B7B4B6",
"X. c #B1BABB",
"o. c #D99292",
"O. c #DD9997",
"+. c #EA8084",
"@. c #E4848F",
"#. c #E28C89",
"$. c #E58C88",
"%. c #FF9093",
"&. c #FF9699",
"*. c #CEA883",
"=. c #E8A98B",
"-. c #E4A19C",
";. c #DFA0A3",
":. c #D9ACA4",
">. c #DBADAE",
",. c #D3BEBD",
"<. c #D5BCBD",
"1. c #FFA6A8",
"2. c #EBBBAF",
"3. c #E0B8B7",
"4. c #EFBAB2",
"5. c #FBCD92",
"6. c #FFC5B0",
"7. c #ACBDC2",
"8. c #E8BAC1",
"9. c #AAC1C1",
"0. c #A4C0D6",
"q. c #A5C9D0",
"w. c #B7D1DC",
"e. c #C0C0C1",
"r. c #C4C6CD",
"t. c #CBC7C8",
"y. c #C2D0D4",
"u. c #CDD5D5",
"i. c #CED5DA",
"p. c #D7D2D7",
"a. c #D6D6DB",
"s. c #EDC5C0",
"d. c #F8C0C4",
"f. c #E0D2CB",
"g. c #EAD2C9",
"h. c #EED1CA",
"j. c #EDD4CC",
"k. c #F5D1D4",
"l. c #F8DADD",
"z. c #FFE4DE",
"x. c #D3DFE2",
"c. c #F3E6E3",
"v. c #E4E8FC",
"b. c #EDF6FD",
"n. c gray100",
"m. c None",
/* pixels */
"m.m.m.m.m.m.m.q m.m.m.m.m.m.m.m.",
"m.m.m.m.m U ; r 8 m.m.m.m.m.m.m.",
"m.m.m.m.m.g t q e m.m.m.m.m.m.m.",
"m.m.m.m.d : = * - v s m.m.m.m.m.",
"m.m.m.7 w > $.3.V n p m.m.m.m.m.",
"m.m.m.a & @.m.m.m.-.B c h m.m.m.",
"m.m.u > & m.m.m.m.m.m.Z b 3 m.m.",
"m.m.m.6 J L G F 9 m.m.m.m.f u m.",
"m.m.5 5.n.b.a.x.Y S D H A 2 s m.",
"m.m.M v.r.,.p.E o *.< 4 K N 1 m.",
"m.! / q.j P j.I W 0.T z l.f.=.m.",
"m.} y.` 2.g.h.z.s...i.w.:.4.8.m.",
"e.| 7.. 6.c.#.k.x @ u.Q k 1.+.>.",
"m.! + [ O.%.d.&.) ( X.' ;.C l m.",
"m.m. .9.  $ o.# X { O ` <.] m.m.",
"m.m.m.m.m.~ ^ m.m.t.m.m.m.m.m.m."
};
